<?xml version="1.0" standalone="no"?>
<!DOCTYPE svg PUBLIC "-//W3C//DTD SVG 20010904//EN"
 "http://www.w3.org/TR/2001/REC-SVG-20010904/DTD/svg10.dtd">
<svg version="1.0" xmlns="http://www.w3.org/2000/svg"
 width="260.000000pt" height="260.000000pt" viewBox="0 0 260.000000 260.000000"
 preserveAspectRatio="xMidYMid meet">
<metadata>
Created by potrace 1.14, written by Peter Selinger 2001-2017
</metadata>
<g transform="translate(0.000000,260.000000) scale(0.100000,-0.100000)"
fill="#000000" stroke="none">
<path d="M652 2381 c-20 -26 -39 -48 -42 -51 -3 -3 -35 -41 -70 -85 -36 -44
-70 -85 -76 -91 -5 -6 -26 -30 -45 -54 -18 -23 -42 -52 -52 -63 -11 -12 -35
-42 -55 -66 -21 -24 -44 -52 -54 -63 -9 -10 -31 -38 -50 -60 -18 -23 -54 -67
-80 -97 -27 -31 -44 -60 -39 -66 37 -50 107 -141 112 -145 3 -3 86 -110 185
-239 98 -129 221 -289 272 -355 51 -67 132 -173 180 -236 48 -63 89 -117 93
-120 3 -3 43 -54 89 -115 46 -60 128 -167 183 -237 l99 -128 41 53 c22 28 43
54 46 57 3 3 35 41 71 85 35 44 67 82 70 85 3 3 24 28 45 55 22 28 42 52 45
55 3 3 43 52 90 110 84 104 116 143 135 164 6 6 57 70 115 141 104 129 135
167 155 189 6 6 28 33 50 61 57 70 68 84 111 136 22 25 55 65 74 89 31 39 120
148 168 205 9 11 31 38 49 60 l31 41 -28 33 c-40 45 -140 158 -165 185 -11 12
-47 53 -80 90 -33 37 -69 78 -80 90 -11 12 -38 43 -60 68 -22 24 -68 76 -101
114 -34 38 -78 87 -97 109 l-36 40 -631 1 -631 0 -37 -45z"/>
</g>
</svg>
